<mxfile host="app.diagrams.net" modified="2020-08-13T19:27:25.581Z" agent="5.0 (Macintosh)" etag="pdEW6aCSTT2IsZm1RSBK" version="13.6.2" type="github" pages="2">
  <diagram id="VnWDtKDqHyjojQg7kHiL" name="Page-1">
    <mxGraphModel dx="946" dy="511" grid="1" gridSize="10" guides="1" tooltips="1" connect="1" arrows="1" fold="1" page="1" pageScale="1" pageWidth="827" pageHeight="1169" math="0" shadow="0">
      <root>
        <mxCell id="0" />
        <mxCell id="1" parent="0" />
        <mxCell id="Ia37YpMQB4MbFM7ubhuv-7" value="" style="endArrow=none;html=1;strokeWidth=2;strokeColor=#CC0000;" parent="1" edge="1">
          <mxGeometry width="50" height="50" relative="1" as="geometry">
            <mxPoint x="80" y="80" as="sourcePoint" />
            <mxPoint x="770" y="80" as="targetPoint" />
          </mxGeometry>
        </mxCell>
        <mxCell id="Ia37YpMQB4MbFM7ubhuv-8" value="" style="endArrow=none;html=1;strokeWidth=2;strokeColor=#CC0000;" parent="1" edge="1">
          <mxGeometry width="50" height="50" relative="1" as="geometry">
            <mxPoint x="770" y="500" as="sourcePoint" />
            <mxPoint x="770" y="80" as="targetPoint" />
          </mxGeometry>
        </mxCell>
        <mxCell id="Ia37YpMQB4MbFM7ubhuv-9" value="" style="endArrow=none;html=1;strokeWidth=2;strokeColor=#CC0000;" parent="1" edge="1">
          <mxGeometry width="50" height="50" relative="1" as="geometry">
            <mxPoint x="80" y="500" as="sourcePoint" />
            <mxPoint x="770" y="500" as="targetPoint" />
          </mxGeometry>
        </mxCell>
        <mxCell id="Ia37YpMQB4MbFM7ubhuv-10" value="" style="endArrow=none;html=1;strokeWidth=2;strokeColor=#CC0000;" parent="1" source="Ia37YpMQB4MbFM7ubhuv-2" edge="1">
          <mxGeometry width="50" height="50" relative="1" as="geometry">
            <mxPoint x="780" y="510" as="sourcePoint" />
            <mxPoint x="99" y="80" as="targetPoint" />
          </mxGeometry>
        </mxCell>
        <mxCell id="Ia37YpMQB4MbFM7ubhuv-11" value="" style="endArrow=none;html=1;strokeWidth=2;" parent="1" edge="1">
          <mxGeometry width="50" height="50" relative="1" as="geometry">
            <mxPoint x="120" y="90" as="sourcePoint" />
            <mxPoint x="750" y="90" as="targetPoint" />
          </mxGeometry>
        </mxCell>
        <mxCell id="Ia37YpMQB4MbFM7ubhuv-12" value="" style="endArrow=none;html=1;strokeWidth=2;" parent="1" edge="1">
          <mxGeometry width="50" height="50" relative="1" as="geometry">
            <mxPoint x="750" y="480" as="sourcePoint" />
            <mxPoint x="750" y="90" as="targetPoint" />
          </mxGeometry>
        </mxCell>
        <mxCell id="Ia37YpMQB4MbFM7ubhuv-13" value="" style="endArrow=none;html=1;strokeWidth=2;" parent="1" edge="1">
          <mxGeometry width="50" height="50" relative="1" as="geometry">
            <mxPoint x="750" y="480" as="sourcePoint" />
            <mxPoint x="70" y="480" as="targetPoint" />
          </mxGeometry>
        </mxCell>
        <mxCell id="Ia37YpMQB4MbFM7ubhuv-14" value="" style="group" parent="1" vertex="1" connectable="0">
          <mxGeometry x="80" y="230" width="230" height="110" as="geometry" />
        </mxCell>
        <mxCell id="Ia37YpMQB4MbFM7ubhuv-1" value="&lt;font style=&quot;font-size: 20px&quot;&gt;ESP32 microcontroller&lt;br&gt;&lt;/font&gt;" style="rounded=0;whiteSpace=wrap;html=1;" parent="Ia37YpMQB4MbFM7ubhuv-14" vertex="1">
          <mxGeometry width="230" height="110" as="geometry" />
        </mxCell>
        <mxCell id="Ia37YpMQB4MbFM7ubhuv-2" value="5V" style="text;html=1;strokeColor=none;fillColor=none;align=center;verticalAlign=middle;whiteSpace=wrap;rounded=0;fontSize=17;" parent="Ia37YpMQB4MbFM7ubhuv-14" vertex="1">
          <mxGeometry width="40" height="20" as="geometry" />
        </mxCell>
        <mxCell id="Ia37YpMQB4MbFM7ubhuv-3" value="GND" style="text;html=1;strokeColor=none;fillColor=none;align=center;verticalAlign=middle;whiteSpace=wrap;rounded=0;fontSize=17;" parent="Ia37YpMQB4MbFM7ubhuv-14" vertex="1">
          <mxGeometry x="190" y="90" width="40" height="20" as="geometry" />
        </mxCell>
        <mxCell id="Ia37YpMQB4MbFM7ubhuv-4" value="P12" style="text;html=1;strokeColor=none;fillColor=none;align=center;verticalAlign=middle;whiteSpace=wrap;rounded=0;fontSize=17;" parent="Ia37YpMQB4MbFM7ubhuv-14" vertex="1">
          <mxGeometry x="70" width="40" height="20" as="geometry" />
        </mxCell>
        <mxCell id="Ia37YpMQB4MbFM7ubhuv-5" value="P26" style="text;html=1;strokeColor=none;fillColor=none;align=center;verticalAlign=middle;whiteSpace=wrap;rounded=0;fontSize=17;" parent="Ia37YpMQB4MbFM7ubhuv-14" vertex="1">
          <mxGeometry x="130" width="40" height="20" as="geometry" />
        </mxCell>
        <mxCell id="Ia37YpMQB4MbFM7ubhuv-15" value="" style="endArrow=none;html=1;strokeWidth=2;" parent="1" target="Ia37YpMQB4MbFM7ubhuv-3" edge="1">
          <mxGeometry width="50" height="50" relative="1" as="geometry">
            <mxPoint x="290" y="480" as="sourcePoint" />
            <mxPoint x="760" y="100" as="targetPoint" />
          </mxGeometry>
        </mxCell>
        <mxCell id="Ia37YpMQB4MbFM7ubhuv-16" value="" style="group" parent="1" vertex="1" connectable="0">
          <mxGeometry x="360" y="190" width="370" height="110" as="geometry" />
        </mxCell>
        <mxCell id="Ia37YpMQB4MbFM7ubhuv-17" value="&lt;font style=&quot;font-size: 20px&quot;&gt;analog digital converter&lt;br&gt;ADS1115&lt;/font&gt;" style="rounded=0;whiteSpace=wrap;html=1;" parent="Ia37YpMQB4MbFM7ubhuv-16" vertex="1">
          <mxGeometry x="-13.214285714285714" width="383.2142857142857" height="110" as="geometry" />
        </mxCell>
        <mxCell id="Ia37YpMQB4MbFM7ubhuv-18" value="ADDR" style="text;html=1;strokeColor=none;fillColor=none;align=center;verticalAlign=middle;whiteSpace=wrap;rounded=0;fontSize=17;" parent="Ia37YpMQB4MbFM7ubhuv-16" vertex="1">
          <mxGeometry x="47.57142857142857" width="64.34782608695653" height="20" as="geometry" />
        </mxCell>
        <mxCell id="Ia37YpMQB4MbFM7ubhuv-19" value="GND" style="text;html=1;strokeColor=none;fillColor=none;align=center;verticalAlign=middle;whiteSpace=wrap;rounded=0;fontSize=17;" parent="Ia37YpMQB4MbFM7ubhuv-16" vertex="1">
          <mxGeometry x="228.60714285714286" width="64.34782608695653" height="20" as="geometry" />
        </mxCell>
        <mxCell id="Ia37YpMQB4MbFM7ubhuv-20" value="SCL" style="text;html=1;strokeColor=none;fillColor=none;align=center;verticalAlign=middle;whiteSpace=wrap;rounded=0;fontSize=17;" parent="Ia37YpMQB4MbFM7ubhuv-16" vertex="1">
          <mxGeometry x="167.82142857142856" width="64.34782608695653" height="20" as="geometry" />
        </mxCell>
        <mxCell id="Ia37YpMQB4MbFM7ubhuv-21" value="&lt;div style=&quot;font-size: 17px;&quot;&gt;VCC&lt;/div&gt;" style="text;html=1;strokeColor=none;fillColor=none;align=center;verticalAlign=middle;whiteSpace=wrap;rounded=0;fontSize=17;" parent="Ia37YpMQB4MbFM7ubhuv-16" vertex="1">
          <mxGeometry x="289.5652173913044" width="64.34782608695653" height="20" as="geometry" />
        </mxCell>
        <mxCell id="Ia37YpMQB4MbFM7ubhuv-22" value="SDA" style="text;html=1;strokeColor=none;fillColor=none;align=center;verticalAlign=middle;whiteSpace=wrap;rounded=0;fontSize=17;" parent="Ia37YpMQB4MbFM7ubhuv-16" vertex="1">
          <mxGeometry x="108.35714285714286" width="64.34782608695653" height="20" as="geometry" />
        </mxCell>
        <mxCell id="Ia37YpMQB4MbFM7ubhuv-23" value="ALRT" style="text;html=1;strokeColor=none;fillColor=none;align=center;verticalAlign=middle;whiteSpace=wrap;rounded=0;fontSize=17;" parent="Ia37YpMQB4MbFM7ubhuv-16" vertex="1">
          <mxGeometry x="-13.214285714285714" width="64.35357142857143" height="20" as="geometry" />
        </mxCell>
        <mxCell id="Ia37YpMQB4MbFM7ubhuv-24" value="A1" style="text;html=1;strokeColor=none;fillColor=none;align=center;verticalAlign=middle;whiteSpace=wrap;rounded=0;fontSize=17;" parent="Ia37YpMQB4MbFM7ubhuv-16" vertex="1">
          <mxGeometry x="81.96107142857143" y="90" width="64.34782608695653" height="20" as="geometry" />
        </mxCell>
        <mxCell id="Ia37YpMQB4MbFM7ubhuv-25" value="A3" style="text;html=1;strokeColor=none;fillColor=none;align=center;verticalAlign=middle;whiteSpace=wrap;rounded=0;fontSize=17;" parent="Ia37YpMQB4MbFM7ubhuv-16" vertex="1">
          <mxGeometry x="202.21107142857136" y="90" width="64.34782608695653" height="20" as="geometry" />
        </mxCell>
        <mxCell id="Ia37YpMQB4MbFM7ubhuv-26" value="A2" style="text;html=1;strokeColor=none;fillColor=none;align=center;verticalAlign=middle;whiteSpace=wrap;rounded=0;fontSize=17;" parent="Ia37YpMQB4MbFM7ubhuv-16" vertex="1">
          <mxGeometry x="142.74678571428572" y="90" width="64.34782608695653" height="20" as="geometry" />
        </mxCell>
        <mxCell id="Ia37YpMQB4MbFM7ubhuv-27" value="A0" style="text;html=1;strokeColor=none;fillColor=none;align=center;verticalAlign=middle;whiteSpace=wrap;rounded=0;fontSize=17;" parent="Ia37YpMQB4MbFM7ubhuv-16" vertex="1">
          <mxGeometry x="21.175357142857152" y="90" width="64.35357142857143" height="20" as="geometry" />
        </mxCell>
        <mxCell id="Ia37YpMQB4MbFM7ubhuv-28" value="" style="endArrow=none;html=1;strokeWidth=2;strokeColor=#CC0000;" parent="1" source="Ia37YpMQB4MbFM7ubhuv-21" edge="1">
          <mxGeometry width="50" height="50" relative="1" as="geometry">
            <mxPoint x="780" y="510" as="sourcePoint" />
            <mxPoint x="681" y="81" as="targetPoint" />
          </mxGeometry>
        </mxCell>
        <mxCell id="Ia37YpMQB4MbFM7ubhuv-29" value="" style="endArrow=none;html=1;strokeWidth=2;" parent="1" source="Ia37YpMQB4MbFM7ubhuv-19" edge="1">
          <mxGeometry width="50" height="50" relative="1" as="geometry">
            <mxPoint x="613.1884057971015" y="200" as="sourcePoint" />
            <mxPoint x="621" y="90" as="targetPoint" />
          </mxGeometry>
        </mxCell>
        <mxCell id="Ia37YpMQB4MbFM7ubhuv-30" value="" style="group" parent="1" vertex="1" connectable="0">
          <mxGeometry x="207" y="350" width="235" height="110" as="geometry" />
        </mxCell>
        <mxCell id="Ia37YpMQB4MbFM7ubhuv-40" value="" style="group" parent="Ia37YpMQB4MbFM7ubhuv-30" vertex="1" connectable="0">
          <mxGeometry x="115" y="40" width="120" height="70" as="geometry" />
        </mxCell>
        <mxCell id="Ia37YpMQB4MbFM7ubhuv-31" value="" style="rounded=0;whiteSpace=wrap;html=1;" parent="Ia37YpMQB4MbFM7ubhuv-40" vertex="1">
          <mxGeometry x="5" width="110" height="70" as="geometry" />
        </mxCell>
        <mxCell id="Ia37YpMQB4MbFM7ubhuv-33" value="GND" style="text;html=1;strokeColor=none;fillColor=none;align=center;verticalAlign=middle;whiteSpace=wrap;rounded=0;fontSize=17;" parent="Ia37YpMQB4MbFM7ubhuv-40" vertex="1">
          <mxGeometry x="75" y="40" width="40" height="20" as="geometry" />
        </mxCell>
        <mxCell id="Ia37YpMQB4MbFM7ubhuv-36" value="&lt;div style=&quot;font-size: 17px;&quot;&gt;VCC&lt;/div&gt;" style="text;html=1;strokeColor=none;fillColor=none;align=center;verticalAlign=middle;whiteSpace=wrap;rounded=0;fontSize=17;" parent="Ia37YpMQB4MbFM7ubhuv-40" vertex="1">
          <mxGeometry x="5.00043478260875" y="40" width="48.69565217391305" height="20" as="geometry" />
        </mxCell>
        <mxCell id="Ia37YpMQB4MbFM7ubhuv-37" value="micro USB" style="text;html=1;strokeColor=none;fillColor=none;align=center;verticalAlign=middle;whiteSpace=wrap;rounded=0;fontSize=20;" parent="Ia37YpMQB4MbFM7ubhuv-40" vertex="1">
          <mxGeometry y="5" width="120" height="20" as="geometry" />
        </mxCell>
        <mxCell id="Ia37YpMQB4MbFM7ubhuv-41" value="" style="endArrow=none;html=1;strokeWidth=2;" parent="1" target="Ia37YpMQB4MbFM7ubhuv-33" edge="1">
          <mxGeometry width="50" height="50" relative="1" as="geometry">
            <mxPoint x="417" y="480" as="sourcePoint" />
            <mxPoint x="300" y="350" as="targetPoint" />
          </mxGeometry>
        </mxCell>
        <mxCell id="Ia37YpMQB4MbFM7ubhuv-42" value="" style="endArrow=none;html=1;strokeWidth=2;strokeColor=#CC0000;" parent="1" target="Ia37YpMQB4MbFM7ubhuv-36" edge="1">
          <mxGeometry width="50" height="50" relative="1" as="geometry">
            <mxPoint x="350" y="500" as="sourcePoint" />
            <mxPoint x="109" y="90" as="targetPoint" />
          </mxGeometry>
        </mxCell>
        <mxCell id="Ia37YpMQB4MbFM7ubhuv-44" style="edgeStyle=orthogonalEdgeStyle;rounded=0;orthogonalLoop=1;jettySize=auto;html=1;strokeColor=#00FF00;strokeWidth=2;fontSize=20;startArrow=none;startFill=0;endArrow=none;endFill=0;" parent="1" source="Ia37YpMQB4MbFM7ubhuv-4" edge="1">
          <mxGeometry relative="1" as="geometry">
            <mxPoint x="560" y="190" as="targetPoint" />
            <mxPoint x="204" y="226" as="sourcePoint" />
            <Array as="points">
              <mxPoint x="160" y="110" />
              <mxPoint x="560" y="110" />
            </Array>
          </mxGeometry>
        </mxCell>
        <mxCell id="Ia37YpMQB4MbFM7ubhuv-46" style="edgeStyle=orthogonalEdgeStyle;rounded=0;orthogonalLoop=1;jettySize=auto;html=1;strokeColor=#00FF00;strokeWidth=2;fontSize=20;startArrow=none;startFill=0;endArrow=none;endFill=0;" parent="1" source="Ia37YpMQB4MbFM7ubhuv-5" edge="1">
          <mxGeometry relative="1" as="geometry">
            <mxPoint x="500" y="200" as="targetPoint" />
            <mxPoint x="170" y="240" as="sourcePoint" />
            <Array as="points">
              <mxPoint x="220" y="120" />
              <mxPoint x="500" y="120" />
              <mxPoint x="500" y="200" />
            </Array>
          </mxGeometry>
        </mxCell>
        <mxCell id="Ia37YpMQB4MbFM7ubhuv-47" value="sensor" style="ellipse;whiteSpace=wrap;html=1;aspect=fixed;fontSize=20;" parent="1" vertex="1">
          <mxGeometry x="610" y="350" width="80" height="80" as="geometry" />
        </mxCell>
        <mxCell id="Ia37YpMQB4MbFM7ubhuv-48" value="resistor" style="pointerEvents=1;verticalLabelPosition=bottom;shadow=0;dashed=0;align=center;html=1;verticalAlign=top;shape=mxgraph.electrical.resistors.resistor_1;fontSize=20;" parent="1" vertex="1">
          <mxGeometry x="480" y="380" width="100" height="20" as="geometry" />
        </mxCell>
        <mxCell id="Ia37YpMQB4MbFM7ubhuv-50" value="" style="endArrow=none;html=1;strokeWidth=2;exitX=1;exitY=0.5;exitDx=0;exitDy=0;exitPerimeter=0;strokeColor=#00FF00;" parent="1" source="Ia37YpMQB4MbFM7ubhuv-48" target="Ia37YpMQB4MbFM7ubhuv-47" edge="1">
          <mxGeometry width="50" height="50" relative="1" as="geometry">
            <mxPoint x="567.7707509881423" y="200" as="sourcePoint" />
            <mxPoint x="572" y="100" as="targetPoint" />
          </mxGeometry>
        </mxCell>
        <mxCell id="Ia37YpMQB4MbFM7ubhuv-51" value="" style="endArrow=none;html=1;strokeWidth=2;strokeColor=#00FF00;" parent="1" source="Ia37YpMQB4MbFM7ubhuv-25" edge="1">
          <mxGeometry width="50" height="50" relative="1" as="geometry">
            <mxPoint x="590" y="400" as="sourcePoint" />
            <mxPoint x="593" y="390" as="targetPoint" />
          </mxGeometry>
        </mxCell>
        <mxCell id="Ia37YpMQB4MbFM7ubhuv-52" value="" style="endArrow=none;html=1;strokeWidth=2;entryX=0;entryY=0.5;entryDx=0;entryDy=0;entryPerimeter=0;" parent="1" target="Ia37YpMQB4MbFM7ubhuv-48" edge="1">
          <mxGeometry width="50" height="50" relative="1" as="geometry">
            <mxPoint x="480" y="480" as="sourcePoint" />
            <mxPoint x="427" y="460.0000000000001" as="targetPoint" />
          </mxGeometry>
        </mxCell>
        <mxCell id="Ia37YpMQB4MbFM7ubhuv-53" value="" style="endArrow=none;html=1;strokeWidth=2;" parent="1" target="Ia37YpMQB4MbFM7ubhuv-47" edge="1">
          <mxGeometry width="50" height="50" relative="1" as="geometry">
            <mxPoint x="650" y="480" as="sourcePoint" />
            <mxPoint x="490" y="400" as="targetPoint" />
          </mxGeometry>
        </mxCell>
        <mxCell id="Ia37YpMQB4MbFM7ubhuv-54" value="" style="endArrow=none;html=1;strokeWidth=2;entryX=1;entryY=0.5;entryDx=0;entryDy=0;strokeColor=#CC0000;" parent="1" target="Ia37YpMQB4MbFM7ubhuv-47" edge="1">
          <mxGeometry width="50" height="50" relative="1" as="geometry">
            <mxPoint x="770" y="390" as="sourcePoint" />
            <mxPoint x="660" y="439.9999999999999" as="targetPoint" />
          </mxGeometry>
        </mxCell>
        <mxCell id="uRumpBzvmG0z-LzUVju_-6" value="&lt;div style=&quot;font-size: 17px;&quot;&gt;VCC&lt;/div&gt;" style="text;html=1;strokeColor=none;fillColor=none;align=center;verticalAlign=middle;whiteSpace=wrap;rounded=0;fontSize=17;" vertex="1" parent="1">
          <mxGeometry x="480.00043478260875" y="660" width="48.69565217391305" height="20" as="geometry" />
        </mxCell>
        <mxCell id="uRumpBzvmG0z-LzUVju_-7" value="GND" style="text;html=1;strokeColor=none;fillColor=none;align=center;verticalAlign=middle;whiteSpace=wrap;rounded=0;fontSize=17;" vertex="1" parent="1">
          <mxGeometry x="650.0004347826087" y="430" width="48.69565217391305" height="20" as="geometry" />
        </mxCell>
        <mxCell id="uRumpBzvmG0z-LzUVju_-8" value="sensor&lt;br&gt;Rs" style="ellipse;whiteSpace=wrap;html=1;aspect=fixed;fontSize=20;" vertex="1" parent="1">
          <mxGeometry x="390" y="650" width="80" height="80" as="geometry" />
        </mxCell>
        <mxCell id="uRumpBzvmG0z-LzUVju_-16" style="edgeStyle=orthogonalEdgeStyle;rounded=0;orthogonalLoop=1;jettySize=auto;html=1;exitX=1;exitY=0.5;exitDx=0;exitDy=0;exitPerimeter=0;entryX=0;entryY=0.5;entryDx=0;entryDy=0;startArrow=none;startFill=0;endArrow=none;endFill=0;strokeWidth=2;fontSize=17;strokeColor=#00FF00;" edge="1" parent="1" source="uRumpBzvmG0z-LzUVju_-9" target="uRumpBzvmG0z-LzUVju_-8">
          <mxGeometry relative="1" as="geometry" />
        </mxCell>
        <mxCell id="uRumpBzvmG0z-LzUVju_-9" value="resistor, Rr" style="pointerEvents=1;verticalLabelPosition=bottom;shadow=0;dashed=0;align=center;html=1;verticalAlign=top;shape=mxgraph.electrical.resistors.resistor_1;fontSize=20;" vertex="1" parent="1">
          <mxGeometry x="258.7" y="680" width="100" height="20" as="geometry" />
        </mxCell>
        <mxCell id="uRumpBzvmG0z-LzUVju_-10" value="" style="endArrow=none;html=1;strokeWidth=2;strokeColor=#00FF00;" edge="1" parent="1">
          <mxGeometry width="50" height="50" relative="1" as="geometry">
            <mxPoint x="374.24648602484467" y="600" as="sourcePoint" />
            <mxPoint x="373" y="690" as="targetPoint" />
          </mxGeometry>
        </mxCell>
        <mxCell id="uRumpBzvmG0z-LzUVju_-13" value="" style="endArrow=none;html=1;strokeWidth=2;entryX=1;entryY=0.5;entryDx=0;entryDy=0;strokeColor=#CC0000;" edge="1" parent="1" target="uRumpBzvmG0z-LzUVju_-8">
          <mxGeometry width="50" height="50" relative="1" as="geometry">
            <mxPoint x="550" y="690" as="sourcePoint" />
            <mxPoint x="440" y="739.9999999999999" as="targetPoint" />
          </mxGeometry>
        </mxCell>
        <mxCell id="uRumpBzvmG0z-LzUVju_-14" value="&lt;div style=&quot;font-size: 17px&quot;&gt;Va&lt;/div&gt;" style="text;html=1;strokeColor=none;fillColor=none;align=center;verticalAlign=middle;whiteSpace=wrap;rounded=0;fontSize=17;" vertex="1" parent="1">
          <mxGeometry x="365.00043478260875" y="630" width="48.69565217391305" height="20" as="geometry" />
        </mxCell>
        <mxCell id="uRumpBzvmG0z-LzUVju_-15" value="GND" style="text;html=1;strokeColor=none;fillColor=none;align=center;verticalAlign=middle;whiteSpace=wrap;rounded=0;fontSize=17;" vertex="1" parent="1">
          <mxGeometry x="210.00043478260875" y="680" width="48.69565217391305" height="20" as="geometry" />
        </mxCell>
      </root>
    </mxGraphModel>
  </diagram>
  <diagram id="U28I--TAxN0aiiSp-W1f" name="Page-2">
    <mxGraphModel dx="946" dy="511" grid="1" gridSize="10" guides="1" tooltips="1" connect="1" arrows="1" fold="1" page="1" pageScale="1" pageWidth="827" pageHeight="1169" math="0" shadow="0">
      <root>
        <mxCell id="lm4Zu3J-j-6vdsktI07K-0" />
        <mxCell id="lm4Zu3J-j-6vdsktI07K-1" parent="lm4Zu3J-j-6vdsktI07K-0" />
        <mxCell id="lm4Zu3J-j-6vdsktI07K-3" value="&lt;div align=&quot;left&quot;&gt;&amp;nbsp; &lt;b&gt;Sensor board&lt;/b&gt;&lt;br&gt;&lt;ul&gt;&lt;li&gt;nsamples = 20&lt;br&gt;&lt;/li&gt;&lt;li&gt;period = 1s&lt;br&gt;&lt;/li&gt;&lt;li&gt;&lt;div&gt;continuous = True&lt;br&gt;&lt;/div&gt;&lt;/li&gt;&lt;/ul&gt;&lt;/div&gt;" style="whiteSpace=wrap;html=1;fontSize=17;align=left;" vertex="1" parent="lm4Zu3J-j-6vdsktI07K-1">
          <mxGeometry x="30" y="83" width="210" height="130" as="geometry" />
        </mxCell>
        <mxCell id="lm4Zu3J-j-6vdsktI07K-5" value="" style="whiteSpace=wrap;html=1;aspect=fixed;fontSize=17;" vertex="1" parent="lm4Zu3J-j-6vdsktI07K-1">
          <mxGeometry x="390" y="50" width="370" height="370" as="geometry" />
        </mxCell>
        <mxCell id="lm4Zu3J-j-6vdsktI07K-6" value="InfluxDB" style="whiteSpace=wrap;html=1;aspect=fixed;fontSize=17;" vertex="1" parent="lm4Zu3J-j-6vdsktI07K-1">
          <mxGeometry x="610" y="80" width="140" height="140" as="geometry" />
        </mxCell>
        <mxCell id="lm4Zu3J-j-6vdsktI07K-7" value="Graphana" style="whiteSpace=wrap;html=1;aspect=fixed;fontSize=17;" vertex="1" parent="lm4Zu3J-j-6vdsktI07K-1">
          <mxGeometry x="610" y="270" width="140" height="140" as="geometry" />
        </mxCell>
        <mxCell id="lm4Zu3J-j-6vdsktI07K-8" value="Board control &lt;br&gt;service" style="whiteSpace=wrap;html=1;aspect=fixed;fontSize=17;" vertex="1" parent="lm4Zu3J-j-6vdsktI07K-1">
          <mxGeometry x="400" y="80" width="140" height="140" as="geometry" />
        </mxCell>
        <mxCell id="lm4Zu3J-j-6vdsktI07K-10" value="" style="endArrow=classic;html=1;strokeWidth=2;fontSize=17;strokeColor=#00FF00;exitX=1;exitY=0.25;exitDx=0;exitDy=0;" edge="1" parent="lm4Zu3J-j-6vdsktI07K-1" source="lm4Zu3J-j-6vdsktI07K-3">
          <mxGeometry width="50" height="50" relative="1" as="geometry">
            <mxPoint x="390" y="100" as="sourcePoint" />
            <mxPoint x="390" y="115" as="targetPoint" />
          </mxGeometry>
        </mxCell>
        <mxCell id="lm4Zu3J-j-6vdsktI07K-11" value="parse_data()" style="text;html=1;strokeColor=none;fillColor=none;align=center;verticalAlign=middle;whiteSpace=wrap;rounded=0;fontSize=17;" vertex="1" parent="lm4Zu3J-j-6vdsktI07K-1">
          <mxGeometry x="300" y="89" width="40" height="20" as="geometry" />
        </mxCell>
        <mxCell id="lm4Zu3J-j-6vdsktI07K-13" value="" style="endArrow=classic;html=1;strokeWidth=2;fontSize=17;exitX=0;exitY=0.351;exitDx=0;exitDy=0;strokeColor=#0000FF;entryX=1;entryY=0.75;entryDx=0;entryDy=0;exitPerimeter=0;" edge="1" parent="lm4Zu3J-j-6vdsktI07K-1" source="lm4Zu3J-j-6vdsktI07K-5" target="lm4Zu3J-j-6vdsktI07K-3">
          <mxGeometry width="50" height="50" relative="1" as="geometry">
            <mxPoint x="210" y="310" as="sourcePoint" />
            <mxPoint x="260" y="260" as="targetPoint" />
          </mxGeometry>
        </mxCell>
        <mxCell id="lm4Zu3J-j-6vdsktI07K-14" value="poll()" style="text;html=1;strokeColor=none;fillColor=none;align=center;verticalAlign=middle;whiteSpace=wrap;rounded=0;fontSize=17;" vertex="1" parent="lm4Zu3J-j-6vdsktI07K-1">
          <mxGeometry x="300" y="150" width="40" height="20" as="geometry" />
        </mxCell>
        <mxCell id="lm4Zu3J-j-6vdsktI07K-17" value="" style="endArrow=classic;html=1;strokeWidth=2;fontSize=17;exitX=1;exitY=0.5;exitDx=0;exitDy=0;" edge="1" parent="lm4Zu3J-j-6vdsktI07K-1" source="lm4Zu3J-j-6vdsktI07K-8" target="lm4Zu3J-j-6vdsktI07K-6">
          <mxGeometry width="50" height="50" relative="1" as="geometry">
            <mxPoint x="240" y="125" as="sourcePoint" />
            <mxPoint x="410" y="125" as="targetPoint" />
          </mxGeometry>
        </mxCell>
        <mxCell id="lm4Zu3J-j-6vdsktI07K-18" value="" style="endArrow=classic;html=1;strokeWidth=2;fontSize=17;exitX=0.5;exitY=0;exitDx=0;exitDy=0;entryX=0.5;entryY=1;entryDx=0;entryDy=0;" edge="1" parent="lm4Zu3J-j-6vdsktI07K-1" source="lm4Zu3J-j-6vdsktI07K-7" target="lm4Zu3J-j-6vdsktI07K-6">
          <mxGeometry width="50" height="50" relative="1" as="geometry">
            <mxPoint x="550" y="160" as="sourcePoint" />
            <mxPoint x="620" y="160" as="targetPoint" />
          </mxGeometry>
        </mxCell>
        <mxCell id="lm4Zu3J-j-6vdsktI07K-19" value="write()" style="text;html=1;strokeColor=none;fillColor=none;align=center;verticalAlign=middle;whiteSpace=wrap;rounded=0;fontSize=17;" vertex="1" parent="lm4Zu3J-j-6vdsktI07K-1">
          <mxGeometry x="553" y="121" width="40" height="20" as="geometry" />
        </mxCell>
        <mxCell id="lm4Zu3J-j-6vdsktI07K-20" value="select()" style="text;html=1;strokeColor=none;fillColor=none;align=center;verticalAlign=middle;whiteSpace=wrap;rounded=0;fontSize=17;" vertex="1" parent="lm4Zu3J-j-6vdsktI07K-1">
          <mxGeometry x="690" y="240" width="40" height="20" as="geometry" />
        </mxCell>
        <mxCell id="lm4Zu3J-j-6vdsktI07K-23" value="" style="endArrow=classic;html=1;strokeWidth=2;fontSize=17;entryX=1;entryY=0.25;entryDx=0;entryDy=0;exitX=0.5;exitY=0.5;exitDx=0;exitDy=0;exitPerimeter=0;" edge="1" parent="lm4Zu3J-j-6vdsktI07K-1" source="lm4Zu3J-j-6vdsktI07K-24" target="lm4Zu3J-j-6vdsktI07K-7">
          <mxGeometry width="50" height="50" relative="1" as="geometry">
            <mxPoint x="400" y="189.87" as="sourcePoint" />
            <mxPoint x="250" y="190.5" as="targetPoint" />
          </mxGeometry>
        </mxCell>
        <mxCell id="lm4Zu3J-j-6vdsktI07K-24" value="User" style="shape=umlActor;verticalLabelPosition=bottom;verticalAlign=top;html=1;outlineConnect=0;fontSize=17;" vertex="1" parent="lm4Zu3J-j-6vdsktI07K-1">
          <mxGeometry x="870" y="213" width="90" height="180" as="geometry" />
        </mxCell>
        <mxCell id="lm4Zu3J-j-6vdsktI07K-25" value="visualize" style="text;html=1;strokeColor=none;fillColor=none;align=center;verticalAlign=middle;whiteSpace=wrap;rounded=0;fontSize=17;" vertex="1" parent="lm4Zu3J-j-6vdsktI07K-1">
          <mxGeometry x="810" y="270" width="40" height="20" as="geometry" />
        </mxCell>
        <mxCell id="lm4Zu3J-j-6vdsktI07K-26" value="Raspberry Pi" style="text;html=1;strokeColor=none;fillColor=none;align=center;verticalAlign=middle;whiteSpace=wrap;rounded=0;fontSize=17;fontStyle=1" vertex="1" parent="lm4Zu3J-j-6vdsktI07K-1">
          <mxGeometry x="500" y="50" width="150" height="20" as="geometry" />
        </mxCell>
      </root>
    </mxGraphModel>
  </diagram>
</mxfile>
